<?xml version="1.0" standalone="no"?>
<!DOCTYPE svg PUBLIC "-//W3C//DTD SVG 20010904//EN"
 "http://www.w3.org/TR/2001/REC-SVG-20010904/DTD/svg10.dtd">
<svg version="1.0" xmlns="http://www.w3.org/2000/svg"
 width="1200.000000pt" height="1074.000000pt" viewBox="0 0 1200.000000 1074.000000"
 preserveAspectRatio="xMidYMid meet">

<g transform="translate(0.000000,1074.000000) scale(0.100000,-0.100000)"
fill="#000000" stroke="none">
<path d="M4565 10024 c-235 -22 -411 -52 -593 -99 -838 -220 -1485 -768 -2010
-1706 -139 -248 -274 -530 -485 -1014 -58 -132 -132 -299 -166 -372 -33 -72
-61 -141 -61 -153 0 -44 122 -254 236 -407 32 -43 117 -138 189 -212 120 -123
192 -185 535 -456 288 -228 407 -397 463 -655 18 -80 21 -132 21 -330 1 -296
-19 -405 -91 -490 -36 -44 -79 -60 -156 -60 -95 0 -181 33 -344 132 -61 37
-87 48 -103 43 -19 -6 -22 -12 -17 -46 7 -55 86 -211 148 -293 68 -89 164
-168 264 -216 114 -55 182 -71 330 -77 116 -4 136 -3 186 16 106 40 175 127
216 271 16 59 18 110 18 565 0 402 -3 508 -14 540 -10 30 -57 82 -180 205
-239 237 -361 401 -432 583 -26 66 -33 100 -37 178 -4 82 -1 101 16 135 24 47
67 89 105 103 51 19 137 13 196 -14 140 -66 312 -310 447 -635 54 -132 97
-204 143 -243 61 -51 70 -30 42 90 -30 128 -59 314 -66 428 -4 55 -11 116 -17
135 -7 23 -56 81 -147 175 -75 78 -166 184 -203 236 -132 186 -233 415 -274
626 -25 125 -25 357 -1 438 96 311 383 493 902 571 115 17 545 30 657 20 l75
-7 13 -42 c42 -142 150 -290 271 -372 l75 -52 -145 -53 c-697 -255 -1056 -491
-1173 -771 -18 -45 -22 -73 -23 -169 0 -110 1 -118 32 -181 101 -205 373 -327
773 -346 l125 -6 1 -146 c2 -220 34 -405 103 -583 112 -289 316 -517 587 -655
55 -28 128 -61 163 -74 58 -21 62 -24 45 -37 -110 -82 -350 -139 -629 -149
-261 -9 -435 21 -610 107 -55 27 -126 69 -157 94 -76 61 -159 163 -206 253
-20 40 -43 75 -49 78 -34 13 -54 -20 -68 -111 -16 -103 43 -250 166 -414 219
-293 264 -397 257 -594 -3 -88 -7 -109 -34 -166 -36 -77 -122 -174 -211 -237
-38 -27 -61 -49 -55 -55 5 -5 87 -29 183 -54 603 -156 1160 -341 1544 -512
l90 -40 33 19 c130 75 367 296 461 429 155 219 213 449 148 582 -50 103 -145
170 -291 208 -44 11 -81 22 -83 24 -6 6 128 35 240 52 55 8 168 15 251 16 130
1 160 -2 216 -21 272 -90 346 -397 214 -887 -54 -202 -131 -406 -255 -683 -44
-96 -79 -177 -79 -181 0 -3 48 -37 108 -75 447 -289 939 -658 1230 -924 73
-66 140 -121 148 -121 31 0 54 22 93 88 102 172 162 374 257 864 11 57 51 83
195 128 693 217 1290 546 1609 887 40 43 118 139 173 213 279 376 535 666 679
767 148 104 226 222 255 388 34 196 -11 374 -182 720 -130 266 -181 360 -698
1293 -25 45 -44 82 -43 82 2 0 45 -22 97 -49 268 -141 597 -153 840 -31 31 16
69 44 84 62 23 28 27 39 23 80 -8 80 -10 82 -320 188 -247 85 -284 104 -322
158 -40 57 -48 149 -18 208 23 45 63 85 109 108 61 31 113 21 356 -64 126 -44
240 -80 254 -80 52 0 113 61 113 114 0 26 -54 126 -105 193 -111 148 -262 239
-490 294 -121 30 -348 32 -445 5 -74 -20 -169 -65 -219 -103 -28 -22 -38 -25
-60 -16 -15 5 -145 49 -290 98 l-263 88 -26 56 c-13 31 -54 128 -89 216 -78
194 -98 230 -162 286 -53 48 -248 156 -431 239 -381 174 -707 258 -960 247
-69 -3 -150 -13 -180 -21 -131 -37 -249 -117 -336 -230 l-30 -38 -57 18 -57
18 -40 82 c-68 140 -175 240 -345 320 -137 65 -225 86 -387 91 -107 4 -154 1
-215 -12 -135 -30 -183 -66 -183 -137 0 -67 20 -79 305 -179 143 -50 274 -102
291 -115 43 -32 74 -99 74 -159 0 -96 -59 -169 -156 -194 -48 -13 -55 -11
-398 90 -279 83 -298 84 -358 20 -33 -35 -38 -46 -38 -88 1 -61 34 -144 93
-226 110 -154 310 -278 522 -322 51 -11 124 -17 200 -17 144 1 242 23 358 82
l78 39 47 -17 47 -18 12 -69 c32 -176 123 -353 252 -488 187 -197 403 -228
704 -103 49 20 124 54 167 76 44 22 84 40 89 40 6 0 38 -33 71 -72 376 -445
500 -1212 335 -2071 -8 -43 -15 -80 -15 -82 0 -4 -16 -7 -145 -25 -293 -41
-565 -119 -780 -225 -212 -104 -359 -211 -567 -414 l-117 -114 -84 21 c-179
45 -312 57 -642 56 -233 0 -329 -4 -387 -15 -77 -15 -78 -15 -60 4 56 65 244
184 381 243 123 53 174 106 189 196 7 38 9 40 77 67 270 106 395 218 345 311
-5 10 -48 46 -95 80 -119 86 -182 141 -243 213 -177 207 -292 468 -382 868
-16 72 -40 155 -54 185 -32 70 -113 155 -181 191 -59 30 -75 56 -75 123 0 57
23 119 72 195 74 114 91 154 91 213 0 67 -32 115 -121 187 l-62 49 0 79 0 79
-88 87 c-226 221 -331 437 -332 676 0 169 59 328 199 537 106 157 189 256 383
454 98 100 178 186 178 191 0 22 -32 47 -138 107 -210 119 -468 211 -722 256
-105 19 -168 23 -395 25 -148 2 -288 1 -310 -1z m310 -274 c251 -17 469 -64
622 -135 49 -22 73 -39 73 -51 0 -9 -59 -73 -130 -141 -290 -278 -485 -583
-595 -930 -26 -82 -50 -155 -55 -163 -5 -10 -21 -14 -51 -13 -73 4 -74 6 -74
241 1 115 6 243 13 287 26 162 65 342 102 474 22 74 38 137 36 138 -10 10
-197 -205 -257 -295 -152 -228 -232 -455 -246 -699 l-6 -113 -86 0 c-147 0
-410 -19 -556 -41 -419 -61 -721 -189 -933 -397 -313 -307 -523 -822 -584
-1435 -15 -142 -22 -151 -90 -108 -180 114 -282 347 -263 596 14 189 108 459
276 800 450 914 1115 1564 1879 1838 230 83 474 133 760 155 8 1 83 -3 165 -8z
m3123 -1054 c47 -24 63 -56 71 -140 8 -91 23 -110 100 -133 114 -33 158 -113
168 -303 5 -87 2 -120 -16 -190 -40 -162 -124 -290 -189 -290 -82 0 -116 53
-131 205 -11 106 -29 147 -69 153 -28 4 -37 -16 -67 -145 -41 -175 -51 -189
-98 -133 -49 58 -54 140 -20 305 27 131 43 230 43 268 0 29 -4 37 -18 37 -26
0 -92 -50 -131 -98 -43 -55 -105 -189 -131 -286 -30 -109 -24 -166 29 -290 23
-54 50 -127 59 -162 15 -59 15 -65 0 -80 -14 -15 -19 -15 -54 2 -59 28 -171
140 -210 209 -98 177 -97 407 5 671 82 212 227 360 402 409 69 19 212 15 257
-9z m685 -423 c82 -87 115 -339 58 -456 -25 -51 -129 -162 -162 -172 -26 -9
-64 17 -86 58 -23 43 -22 148 1 202 11 24 21 83 26 150 5 63 15 128 25 150 21
51 63 95 90 95 12 0 33 -12 48 -27z m-2638 -146 c247 -123 531 -126 807 -7 78
33 86 35 76 17 -42 -79 -207 -181 -333 -208 -78 -16 -235 -16 -305 0 -103 25
-212 85 -296 165 -44 40 -87 88 -98 106 l-18 32 58 -40 c33 -22 82 -51 109
-65z m3380 -597 l420 -127 23 -44 c28 -55 30 -127 3 -160 -17 -21 -27 -24 -88
-23 -54 0 -122 16 -333 77 -409 118 -422 123 -458 158 -46 45 -65 93 -59 154
2 28 9 63 16 78 9 23 15 27 34 21 12 -4 211 -64 442 -134z m-3855 -123 c0 -22
-13 -44 -51 -84 -46 -48 -60 -73 -114 -201 -25 -59 -83 -116 -152 -150 -67
-33 -109 -45 -248 -67 -126 -19 -206 -45 -320 -102 -166 -83 -289 -188 -283
-241 7 -58 110 -63 301 -17 118 29 207 32 288 9 68 -19 118 -13 145 17 15 17
19 34 16 90 -2 60 0 69 18 79 29 16 108 -9 187 -57 176 -108 362 -229 363
-234 0 -3 -103 -58 -229 -123 -125 -64 -237 -127 -249 -139 -35 -37 -37 -69
-7 -97 26 -24 32 -25 173 -26 164 -2 170 -5 192 -82 8 -32 7 -39 -13 -60 -49
-52 -185 -98 -350 -117 l-59 -7 24 -25 c57 -62 139 -83 359 -91 187 -7 197
-10 223 -61 8 -14 26 -79 40 -144 15 -66 35 -136 45 -156 29 -55 112 -128 193
-166 77 -37 86 -48 87 -108 2 -108 -79 -189 -239 -239 -66 -20 -95 -23 -240
-23 -182 0 -257 12 -400 64 -435 159 -684 615 -707 1292 l-6 186 -41 -8 c-23
-4 -98 -13 -169 -19 -290 -26 -519 37 -605 165 -32 47 -34 54 -30 120 5 97 34
153 132 251 124 123 306 233 566 340 328 135 783 257 1050 282 95 9 110 2 110
-51z m3296 -146 c182 -59 381 -160 548 -278 113 -81 308 -278 383 -389 123
-181 204 -373 250 -593 34 -163 39 -407 10 -510 -33 -122 -108 -266 -186 -360
-47 -56 -56 -90 -37 -135 35 -85 127 -71 299 46 72 49 175 98 205 98 61 0 93
-64 71 -142 -60 -224 -255 -358 -521 -358 -167 0 -288 54 -424 190 -302 300
-520 933 -639 1854 -14 109 -24 200 -22 202 7 8 192 -292 258 -420 l67 -129 7
68 c13 117 0 321 -25 400 -53 166 -144 300 -299 438 -29 26 -49 47 -44 47 5 0
49 -13 99 -29z m1222 -256 c106 -159 236 -272 377 -330 l56 -23 -34 -6 c-44
-8 -176 10 -251 35 -116 39 -227 106 -326 198 -50 46 -53 50 -30 51 57 1 140
93 140 155 0 23 -4 27 68 -80z m-4013 -1150 c88 -227 186 -396 292 -506 69
-72 72 -88 22 -114 -199 -104 -448 322 -452 775 -1 91 3 145 12 165 12 29 13
28 48 -90 19 -66 54 -170 78 -230z m2819 -1040 c149 -28 216 -83 216 -177 0
-69 -33 -132 -111 -210 -47 -47 -88 -78 -138 -102 -79 -38 -193 -61 -251 -52
l-38 6 -40 -68 c-141 -237 -357 -453 -537 -538 -156 -74 -312 -85 -421 -28
-147 75 -205 236 -154 422 108 390 478 674 972 746 129 19 407 20 502 1z"/>
<path d="M4800 7211 c-279 -62 -552 -241 -635 -418 -22 -46 -26 -67 -23 -114
2 -32 7 -62 11 -65 4 -4 17 6 29 22 123 160 314 296 516 368 40 14 135 37 211
51 145 26 191 39 260 75 37 18 41 23 29 37 -48 58 -239 79 -398 44z"/>
<path d="M4984 6001 c-81 -50 -117 -150 -96 -271 25 -148 109 -249 229 -275
l33 -7 -35 52 c-61 90 -87 192 -94 367 l-6 153 -31 -19z"/>
<path d="M1374 4131 c-98 -57 -184 -169 -214 -279 -6 -24 -11 -83 -11 -132 1
-310 253 -550 900 -854 86 -41 336 -153 556 -251 411 -181 854 -394 1069 -512
602 -331 1065 -693 1434 -1122 184 -214 309 -295 516 -338 68 -13 119 -15 316
-10 351 10 726 44 798 73 39 16 66 70 56 110 -4 15 -46 79 -94 143 -422 567
-975 1018 -1680 1372 -455 228 -840 373 -1710 644 -644 201 -881 286 -1125
405 -186 91 -336 191 -444 298 -129 127 -203 247 -246 397 -28 97 -39 102
-121 56z"/>
<path d="M1760 2533 c-62 -23 -87 -92 -65 -179 42 -162 160 -270 685 -627 290
-197 413 -296 555 -445 286 -300 367 -376 442 -415 112 -58 202 -78 389 -84
170 -6 312 6 403 33 60 17 121 69 121 101 0 30 -73 171 -130 251 -62 88 -195
224 -304 311 -263 209 -602 395 -1276 701 -184 84 -423 196 -530 250 -183 93
-253 117 -290 103z"/>
<path d="M2006 1460 c-75 -49 -86 -147 -29 -261 47 -95 189 -241 275 -282 144
-69 311 -3 325 127 13 108 -122 234 -397 373 -68 35 -129 63 -135 63 -5 0 -23
-9 -39 -20z"/>
</g>
</svg>
